<svg width="97" height="97" viewBox="0 0 97 97" fill="none" xmlns="http://www.w3.org/2000/svg">
<path d="M48.5 0C32.1093 0 18.7742 14.5048 18.7742 32.3333C18.7742 40.7956 23.1255 47.1173 27.3363 53.233C30.6975 58.1189 33.8632 62.7721 34.4194 68.0702V79.9825C34.4194 85.9718 38.5079 90.9308 43.8065 91.7618V93.5965C43.8065 95.4711 45.2121 97 46.9355 97H50.0645C51.7879 97 53.1936 95.4711 53.1936 93.5965V91.7618C58.4921 90.9308 62.5806 85.9718 62.5806 79.9825V69.5991C62.6051 63.6496 66.058 58.5909 69.7188 53.233C73.9051 47.1173 78.2258 40.7956 78.2258 32.3333C78.2258 14.5048 64.8908 0 48.5 0ZM48.5 3.40351C63.1673 3.40351 75.0968 16.3794 75.0968 32.3333C75.0968 39.6721 71.0877 45.5352 67.2131 51.2055C63.7051 56.3374 60.0872 61.6221 59.525 67.9638H50.0645V62.9649C50.0645 62.0276 49.3617 61.2632 48.5 61.2632C47.6383 61.2632 46.9355 62.0276 46.9355 62.9649V67.9705H37.5912C37.0228 61.6288 33.3743 56.3307 29.8419 51.1922C25.9367 45.5219 21.9032 39.6655 21.9032 32.3333C21.9032 16.3794 33.8327 3.40351 48.5 3.40351ZM48.2861 8.50212C44.1059 8.54201 40.0235 9.87815 36.4728 12.4175C35.7516 12.9293 35.5561 13.9863 36.0328 14.7707C36.3322 15.2693 36.8272 15.5352 37.3345 15.5352C37.6339 15.5352 37.9273 15.4487 38.1962 15.256C42.248 12.3577 47.1188 11.2941 51.9163 12.2513C52.7719 12.4175 53.5847 11.8059 53.7375 10.8819C53.8964 9.95792 53.3341 9.07381 52.4846 8.90762C51.0851 8.62178 49.6856 8.48883 48.2861 8.50212ZM59.2316 11.6996C58.6327 11.6065 58.0032 11.9056 57.6671 12.5039C57.221 13.3149 57.4593 14.3586 58.2049 14.8438C59.4944 15.6947 60.6983 16.7184 61.7739 17.895C62.0795 18.2274 62.4829 18.3936 62.8801 18.3936C63.2835 18.3936 63.6868 18.2274 63.9924 17.895C64.6035 17.2303 64.6035 16.1534 63.9924 15.4886C62.7273 14.1192 61.3278 12.9227 59.8183 11.9322C59.635 11.8126 59.4333 11.7328 59.2316 11.6996ZM7.85925 12.7831C7.24811 12.7964 6.67364 13.1952 6.42918 13.8467C6.11139 14.7175 6.49641 15.7146 7.297 16.0603L13.1028 18.6129C13.2923 18.6994 13.4878 18.7392 13.6834 18.7392C14.3007 18.7392 14.8935 18.3337 15.1379 17.6756C15.4618 16.7982 15.0707 15.8077 14.2701 15.4554L8.47039 12.9028C8.26871 12.8163 8.06093 12.7765 7.85925 12.7831ZM89.1408 12.7831C88.9391 12.7765 88.7313 12.8163 88.5296 12.9028L82.7299 15.4554C81.9293 15.8077 81.5382 16.7982 81.8621 17.6756C82.1065 18.3337 82.6993 18.7392 83.3166 18.7392C83.5122 18.7392 83.7077 18.6994 83.8972 18.6129L89.703 16.0603C90.5036 15.7146 90.8886 14.7175 90.5708 13.8467C90.3264 13.1952 89.7519 12.7964 89.1408 12.7831ZM1.56452 30.6316C0.70281 30.6316 0 31.396 0 32.3333C0 33.2706 0.70281 34.0351 1.56452 34.0351H10.9516C11.8133 34.0351 12.5161 33.2706 12.5161 32.3333C12.5161 31.396 11.8133 30.6316 10.9516 30.6316H1.56452ZM86.0484 30.6316C85.1867 30.6316 84.4839 31.396 84.4839 32.3333C84.4839 33.2706 85.1867 34.0351 86.0484 34.0351H95.4355C96.2972 34.0351 97 33.2706 97 32.3333C97 31.396 96.2972 30.6316 95.4355 30.6316H86.0484ZM42.2419 37.4386C41.8447 37.4386 41.4413 37.6048 41.1358 37.9372C40.5246 38.6019 40.5246 39.6788 41.1358 40.3435L44.2648 43.7471C44.5704 44.0794 44.9676 44.2456 45.371 44.2456C45.7743 44.2456 46.1716 44.0794 46.4771 43.7471C47.0883 43.0823 47.0883 42.0054 46.4771 41.3407L43.3481 37.9372C43.0425 37.6048 42.6392 37.4386 42.2419 37.4386ZM54.7581 37.4386C54.3608 37.4386 53.9575 37.6048 53.6519 37.9372L47.3938 44.7442C47.1005 45.0633 46.9355 45.4953 46.9355 45.9474V56.1579C46.9355 57.0952 47.6383 57.8596 48.5 57.8596C49.3617 57.8596 50.0645 57.0952 50.0645 56.1579V46.652L55.8642 40.3435C56.4754 39.6788 56.4754 38.6019 55.8642 37.9372C55.5587 37.6048 55.1553 37.4386 54.7581 37.4386ZM13.714 45.9274C13.5062 45.9274 13.2984 45.9673 13.1028 46.0537L7.297 48.6064C6.49641 48.952 6.11139 49.9492 6.42918 50.82C6.67975 51.4847 7.26644 51.8836 7.8837 51.8836C8.07926 51.8836 8.28094 51.8437 8.47039 51.7639L14.2701 49.2113C15.0707 48.859 15.4618 47.8685 15.1379 46.991C14.8935 46.3396 14.319 45.9407 13.714 45.9274ZM83.286 45.9341C82.681 45.9474 82.1065 46.3462 81.8621 46.9977C81.5382 47.8685 81.9293 48.8656 82.7299 49.2179L88.5296 51.7639C88.7191 51.8503 88.9207 51.8836 89.1163 51.8836C89.7336 51.8836 90.3203 51.4847 90.5708 50.82C90.8886 49.9492 90.5036 48.9587 89.703 48.6064L83.8972 46.0537C83.7016 45.9673 83.4938 45.9274 83.286 45.9341ZM37.5484 71.4737H59.4516V73.3749L37.5484 76.3529V71.4737ZM59.4516 76.805V79.9825C59.4516 80.0489 59.4333 80.1154 59.4333 80.1885L43.5437 82.349C42.6881 82.462 42.083 83.3128 42.193 84.2435C42.2908 85.1077 42.9631 85.7325 43.7392 85.7325C43.8065 85.7325 43.8676 85.7325 43.9348 85.7192L58.6205 83.725C57.3432 86.5369 54.7031 88.4912 51.629 88.4912H45.371C41.0563 88.4912 37.5484 84.6756 37.5484 79.9825V79.783L59.4516 76.805ZM46.9355 91.8947H50.0645V93.5965H46.9355V91.8947Z" fill="#C00DDE" fill-opacity="0.3"/>
</svg>
