<svg width="97" height="97" viewBox="0 0 97 97" fill="none" xmlns="http://www.w3.org/2000/svg">
<path d="M82.8909 0C75.113 0 68.7818 6.69644 68.7818 14.9231C68.7818 15.0105 68.7818 15.098 68.7818 15.1854L33.8535 35.8066C31.6283 34.3493 29.0862 33.5769 26.4545 33.5769C18.6766 33.5769 12.3455 40.2734 12.3455 48.5C12.3455 56.7266 18.6766 63.4231 26.4545 63.4231C29.0862 63.4231 31.6283 62.6507 33.8535 61.1934L68.7818 81.8146C68.7818 81.902 68.7818 81.9895 68.7818 82.0769C68.7818 82.7109 68.83 83.3302 68.8989 83.9423C68.9196 84.1099 68.954 84.2775 68.9747 84.4451C69.0505 84.9187 69.1469 85.3851 69.2572 85.8441C69.2916 85.9971 69.3261 86.1502 69.3674 86.3032C69.5259 86.8788 69.7188 87.4399 69.9392 87.9791C70.0012 88.1321 70.077 88.2779 70.139 88.4236C70.3181 88.8244 70.5179 89.2106 70.7246 89.5968C70.7866 89.6988 70.8279 89.8154 70.8899 89.9247C70.9175 89.9757 70.9588 90.0121 70.9864 90.0558C73.494 94.2238 77.8893 97 82.8909 97C90.6688 97 97 90.3036 97 82.0769C97 73.8503 90.6688 67.1538 82.8909 67.1538C80.3281 67.1538 77.8549 67.8825 75.6641 69.2743L40.5636 48.551V48.449L75.6641 27.7257C75.7675 27.7913 75.8846 27.8423 75.9879 27.9079C76.3117 28.0974 76.6355 28.2722 76.9731 28.4398C77.2004 28.5491 77.4278 28.6584 77.662 28.7604C77.972 28.8916 78.2889 29.0082 78.6127 29.1175C78.8607 29.1976 79.1087 29.2851 79.3636 29.3579C79.715 29.4527 80.0663 29.5183 80.4177 29.5838C80.6519 29.6276 80.8724 29.6858 81.0997 29.7223C81.6922 29.8024 82.2915 29.8462 82.8909 29.8462C90.6688 29.8462 97 23.1497 97 14.9231C97 6.69644 90.6688 0 82.8909 0ZM82.8909 3.73077C88.7261 3.73077 93.4727 8.75128 93.4727 14.9231C93.4727 21.0949 88.7261 26.1154 82.8909 26.1154C82.3949 26.1154 81.9058 26.0644 81.4235 25.9988C81.2651 25.9697 81.1066 25.9332 80.9482 25.9041C80.6175 25.8385 80.2868 25.7583 79.963 25.6563C79.7977 25.6053 79.6392 25.5543 79.4808 25.5033C79.0812 25.3576 78.6816 25.19 78.2958 24.986C78.2476 24.9641 78.1925 24.9422 78.1442 24.9204C77.6827 24.6726 77.2418 24.3812 76.8077 24.0678C75.857 23.3537 75.0028 22.4866 74.3001 21.4592C73.7352 20.6285 72.6329 20.4391 71.8406 21.0439C71.0484 21.6414 70.8692 22.8072 71.441 23.6452C71.82 24.2063 72.2471 24.7163 72.6949 25.2118L37.8906 45.7602C37.2844 46.11 36.933 46.8095 36.9881 47.5382C37.0157 47.8588 37.0364 48.1794 37.0364 48.5C37.0364 48.8206 37.0157 49.1412 36.9881 49.4618C36.933 50.1905 37.2844 50.8827 37.8906 51.2398L74.8788 73.0779C75.4781 73.4277 76.2084 73.3912 76.7664 72.9686C78.5645 71.606 80.6864 70.8846 82.8909 70.8846C88.7261 70.8846 93.4727 75.9051 93.4727 82.0769C93.4727 88.2487 88.7261 93.2692 82.8909 93.2692C79.0054 93.2692 75.609 91.0322 73.7696 87.7168C73.6043 87.4326 73.4596 87.1339 73.3287 86.8351C73.2736 86.7258 73.2185 86.6165 73.1702 86.5072C73.0049 86.0919 72.8671 85.6765 72.75 85.2539C72.7156 85.1373 72.6949 85.0207 72.6673 84.9041C72.5778 84.5617 72.5089 84.2046 72.4538 83.8549C72.4331 83.731 72.4193 83.5998 72.3987 83.476C72.3504 83.0096 72.3091 82.5506 72.3091 82.0769C72.3091 81.6907 72.3298 81.3118 72.3642 80.9402V80.9329C72.4675 79.8253 72.7293 78.7542 73.1358 77.7268C73.5216 76.7795 73.0945 75.6792 72.1989 75.2785C71.3033 74.8777 70.2699 75.3222 69.891 76.2767C69.6843 76.7941 69.5052 77.3333 69.3605 77.8798L34.6251 57.3751C34.3565 57.2148 34.0602 57.1347 33.764 57.1347C33.3989 57.1347 33.0337 57.2586 32.7168 57.5063C30.8843 58.9345 28.7142 59.6923 26.4545 59.6923C20.6194 59.6923 15.8727 54.6718 15.8727 48.5C15.8727 42.3282 20.6194 37.3077 26.4545 37.3077C28.7142 37.3077 30.8843 38.0655 32.7168 39.4937C33.2817 39.9309 34.0189 39.9819 34.6251 39.6176L71.4686 17.8742C72.0817 17.5098 72.4331 16.803 72.3642 16.0598C72.3298 15.6882 72.3091 15.3093 72.3091 14.9231C72.3091 8.75128 77.0558 3.73077 82.8909 3.73077ZM26.4545 20.5192C25.4763 20.5192 24.6909 21.3572 24.6909 22.3846V26.1154C24.6909 27.1428 25.4763 27.9808 26.4545 27.9808C27.4328 27.9808 28.2182 27.1428 28.2182 26.1154V22.3846C28.2182 21.3572 27.4328 20.5192 26.4545 20.5192ZM13.8886 24.0314C13.6613 24.0605 13.4339 24.1407 13.2273 24.2719C12.3799 24.7819 12.0974 25.9259 12.5797 26.8149L14.3433 30.0502C14.674 30.6477 15.2665 30.9829 15.8727 30.9829C16.1759 30.9829 16.479 30.9027 16.7545 30.7278C17.6019 30.2178 17.8844 29.0738 17.3952 28.1848L15.6385 24.9495C15.2665 24.2864 14.5707 23.944 13.8886 24.0314ZM5.29091 33.5915C4.60888 33.5041 3.90618 33.8392 3.54105 34.5096C3.05881 35.3986 3.34815 36.5426 4.18864 37.0527L7.24744 38.918C7.52301 39.0929 7.82614 39.1731 8.12237 39.1731C8.73551 39.1731 9.32798 38.8379 9.65177 38.2404C10.1409 37.3514 9.85156 36.2074 9.01108 35.6973L5.95227 33.832C5.7456 33.7008 5.51825 33.6206 5.29091 33.5915ZM1.76364 46.6346C0.78537 46.6346 0 47.4726 0 48.5C0 49.5274 0.78537 50.3654 1.76364 50.3654H5.29091C6.26918 50.3654 7.05455 49.5274 7.05455 48.5C7.05455 47.4726 6.26918 46.6346 5.29091 46.6346H1.76364ZM7.90881 57.8415C7.68146 57.8706 7.45412 57.9508 7.24744 58.082L4.18864 59.9473C3.34815 60.4574 3.05881 61.6014 3.54105 62.4904C3.87173 63.0879 4.4642 63.4231 5.07045 63.4231C5.37358 63.4231 5.6767 63.3429 5.95227 63.168L9.01108 61.3027C9.85156 60.7926 10.1409 59.6486 9.65867 58.7596C9.28665 58.0892 8.58395 57.7541 7.90881 57.8415ZM16.0932 66.039C15.4043 65.9443 14.7085 66.2867 14.3433 66.9498L12.5797 70.1851C12.0974 71.0741 12.3868 72.2181 13.2273 72.7281C13.5028 72.903 13.806 72.9832 14.1091 72.9832C14.7153 72.9832 15.3078 72.648 15.6385 72.0505L17.3952 68.8152C17.8844 67.9262 17.6019 66.7822 16.7545 66.2722C16.541 66.141 16.3136 66.0681 16.0932 66.039ZM26.4545 69.0192C25.4763 69.0192 24.6909 69.8572 24.6909 70.8846V74.6154C24.6909 75.6428 25.4763 76.4808 26.4545 76.4808C27.4328 76.4808 28.2182 75.6428 28.2182 74.6154V70.8846C28.2182 69.8572 27.4328 69.0192 26.4545 69.0192Z" fill="#C00DDE" fill-opacity="0.3"/>
</svg>
