<svg width="97" height="97" viewBox="0 0 97 97" fill="none" xmlns="http://www.w3.org/2000/svg">
<path d="M48.5 0C47.6593 0 46.9844 0.680848 46.9844 1.51562V10.6094C46.9844 11.4442 47.6593 12.125 48.5 12.125C49.3407 12.125 50.0156 11.4442 50.0156 10.6094V1.51562C50.0156 0.680848 49.3407 0 48.5 0ZM32.059 6.23419C31.8636 6.22827 31.6624 6.26379 31.467 6.34668C30.6914 6.65454 30.3184 7.53668 30.6322 8.31226L32.8997 13.9366C33.1365 14.5287 33.7049 14.8839 34.3088 14.8839C34.4982 14.8839 34.6877 14.8484 34.8771 14.7773C35.6527 14.4636 36.0257 13.5755 35.7119 12.7999L33.4385 7.18146C33.2076 6.60126 32.6511 6.24603 32.059 6.23419ZM64.941 6.23419C64.3489 6.24603 63.7924 6.60126 63.5615 7.18146L61.2881 12.7999C60.9743 13.5755 61.3532 14.4636 62.1229 14.7773C62.3123 14.8484 62.5018 14.8839 62.6912 14.8839C63.2951 14.8839 63.8635 14.5287 64.1003 13.9366L66.3678 8.31226C66.6816 7.53668 66.3086 6.65454 65.533 6.34668C65.3376 6.26379 65.1364 6.22827 64.941 6.23419ZM15.2747 13.759C14.8898 13.759 14.505 13.907 14.209 14.2031C13.611 14.7951 13.611 15.7542 14.209 16.3463L20.6326 22.7817C20.9286 23.0718 21.3194 23.2258 21.7101 23.2258C22.095 23.2258 22.4857 23.0718 22.7817 22.7817C23.3738 22.1838 23.3738 21.2306 22.7817 20.6326L16.3463 14.2031C16.0502 13.907 15.6654 13.759 15.2747 13.759ZM81.7253 13.759C81.3346 13.759 80.9498 13.907 80.6537 14.2031L74.2183 20.6326C73.6262 21.2306 73.6262 22.1838 74.2183 22.7817C74.5143 23.0778 74.905 23.2258 75.2899 23.2258C75.6806 23.2258 76.0714 23.0718 76.3674 22.7817L82.791 16.3463C83.389 15.7542 83.389 14.7951 82.791 14.2031C82.495 13.907 82.1102 13.759 81.7253 13.759ZM48.5 15.1562C30.1112 15.1562 15.1562 30.1112 15.1562 48.5C15.1562 66.8888 30.1112 81.8438 48.5 81.8438C66.8888 81.8438 81.8438 66.8888 81.8438 48.5C81.8438 30.1112 66.8888 15.1562 48.5 15.1562ZM48.5 18.1875C65.2133 18.1875 78.8125 31.7867 78.8125 48.5C78.8125 65.2133 65.2133 78.8125 48.5 78.8125C31.7867 78.8125 18.1875 65.2133 18.1875 48.5C18.1875 31.7867 31.7867 18.1875 48.5 18.1875ZM48.5 24.25C42.4434 24.25 36.6414 26.4998 32.1656 30.5789C31.5499 31.1414 31.5025 32.1005 32.0649 32.7221C32.361 33.0477 32.7754 33.2135 33.1839 33.2135C33.551 33.2135 33.918 33.0833 34.2081 32.8168C38.1215 29.2468 43.2012 27.2812 48.5 27.2812C51.1642 27.2812 53.7632 27.7667 56.2202 28.7258C56.9958 29.0278 57.8779 28.6489 58.1799 27.8674C58.4818 27.0859 58.097 26.2097 57.3155 25.9077C54.5092 24.8065 51.5431 24.25 48.5 24.25ZM62.6735 29.3416C62.2886 29.383 61.9156 29.5724 61.6492 29.8922C61.1223 30.5434 61.223 31.4966 61.8742 32.0235C62.6853 32.6866 63.4609 33.4148 64.1713 34.1963C64.4673 34.5219 64.8818 34.6877 65.2903 34.6877C65.6573 34.6877 66.0244 34.5574 66.3145 34.291C66.9302 33.7227 66.9717 32.7635 66.4092 32.1478C65.5922 31.2598 64.7101 30.425 63.7865 29.6731C63.4609 29.4067 63.0583 29.3001 62.6735 29.3416ZM7.72021 30.5197C7.13409 30.5256 6.57758 30.8868 6.34076 31.467C6.02698 32.2426 6.40588 33.1247 7.17554 33.4385L12.7999 35.7119C12.9835 35.7889 13.1788 35.8244 13.3683 35.8244C13.9662 35.8244 14.5346 35.4633 14.7714 34.8771C15.0852 34.0956 14.7122 33.2135 13.9366 32.8997L8.31226 30.6263C8.1228 30.5493 7.92151 30.5138 7.72021 30.5197ZM89.2798 30.5197C89.0785 30.5138 88.8772 30.5493 88.6877 30.6263L83.0634 32.8997C82.2878 33.2135 81.9148 34.0956 82.2286 34.8771C82.4654 35.4633 83.0338 35.8244 83.6317 35.8244C83.8212 35.8244 84.0165 35.7889 84.2001 35.7119L89.8245 33.4385C90.6 33.1247 90.973 32.2426 90.6592 31.467C90.4224 30.8868 89.8659 30.5256 89.2798 30.5197ZM1.51562 46.9844C0.674927 46.9844 0 47.6652 0 48.5C0 49.3348 0.674927 50.0156 1.51562 50.0156H10.6094C11.4501 50.0156 12.125 49.3348 12.125 48.5C12.125 47.6652 11.4501 46.9844 10.6094 46.9844H1.51562ZM86.3906 46.9844C85.5499 46.9844 84.875 47.6652 84.875 48.5C84.875 49.3348 85.5499 50.0156 86.3906 50.0156H95.4844C96.3251 50.0156 97 49.3348 97 48.5C97 47.6652 96.3251 46.9844 95.4844 46.9844H86.3906ZM30.3599 54.6809C30.1586 54.6868 29.9632 54.7224 29.7678 54.7993L26.9793 55.9834C26.2097 56.3149 25.8485 57.203 26.1741 57.9727C26.4228 58.5529 26.9793 58.8962 27.5714 58.8962C27.7726 58.8962 27.968 58.8607 28.1634 58.7778L30.9519 57.5938C31.7275 57.2681 32.0827 56.3801 31.7571 55.6045C31.5084 55.0302 30.946 54.6809 30.3599 54.6809ZM34.5693 60.9151C34.1785 60.9151 33.7937 61.0631 33.4977 61.3591L31.3545 63.5023C30.7625 64.0944 30.7625 65.0535 31.3545 65.6455C31.6505 65.9415 32.0353 66.0895 32.4261 66.0895C32.8168 66.0895 33.2017 65.9415 33.4977 65.6455L35.6409 63.5023C36.2329 62.9103 36.2329 61.9512 35.6409 61.3591C35.3448 61.0631 34.96 60.9151 34.5693 60.9151ZM13.392 61.1756C13.1966 61.1756 12.9953 61.2111 12.7999 61.2881L7.17554 63.5615C6.39996 63.8753 6.02698 64.7574 6.34076 65.533C6.57758 66.1251 7.14594 66.4803 7.7439 66.4803C7.93335 66.4803 8.12872 66.4507 8.31226 66.3737L13.9366 64.1003C14.7122 63.7865 15.0852 62.9044 14.7714 62.1229C14.5346 61.5427 13.984 61.1874 13.392 61.1756ZM83.614 61.1815C83.0219 61.1934 82.4654 61.5427 82.2286 62.1229C81.9148 62.9044 82.2878 63.7865 83.0634 64.1003L88.6877 66.3737C88.8713 66.4507 89.0667 66.4803 89.2561 66.4803C89.8541 66.4803 90.4224 66.1251 90.6592 65.533C90.973 64.7574 90.5941 63.8753 89.8245 63.5615L84.2001 61.2881C84.0047 61.2111 83.8093 61.1756 83.614 61.1815ZM41.0936 65.2548C40.5074 65.2666 39.9509 65.6218 39.7141 66.202L38.5774 69.0083C38.2636 69.7898 38.6425 70.6719 39.4181 70.9857C39.6016 71.0627 39.7911 71.0923 39.9805 71.0923C40.5844 71.0923 41.1528 70.7371 41.3896 70.145L42.5263 67.3328C42.8342 66.5573 42.4612 65.6751 41.6856 65.3613C41.4962 65.2844 41.2949 65.2488 41.0936 65.2548ZM55.9064 65.2548C55.7051 65.2488 55.5098 65.2844 55.3144 65.3613C54.5388 65.6751 54.1658 66.5573 54.4737 67.3328L55.6104 70.145C55.8472 70.7371 56.4156 71.0923 57.0195 71.0923C57.2089 71.0923 57.3984 71.0627 57.5819 70.9857C58.3575 70.6719 58.7364 69.7898 58.4226 69.0083L57.2859 66.202C57.0491 65.6218 56.4926 65.2666 55.9064 65.2548ZM48.5 66.6875C47.6593 66.6875 46.9844 67.3683 46.9844 68.2031V71.2344C46.9844 72.0692 47.6593 72.75 48.5 72.75C49.3407 72.75 50.0156 72.0692 50.0156 71.2344V68.2031C50.0156 67.3683 49.3407 66.6875 48.5 66.6875ZM21.7101 73.7742C21.3194 73.7742 20.9346 73.9222 20.6326 74.2183L14.209 80.6537C13.611 81.2458 13.611 82.2049 14.209 82.7969C14.4991 83.093 14.8898 83.241 15.2747 83.241C15.6654 83.241 16.0562 83.093 16.3463 82.7969L22.7817 76.3674C23.3738 75.7694 23.3738 74.8162 22.7817 74.2183C22.4798 73.9222 22.095 73.7742 21.7101 73.7742ZM75.2899 73.7742C74.905 73.7742 74.5202 73.9222 74.2183 74.2183C73.6262 74.8162 73.6262 75.7694 74.2183 76.3674L80.6537 82.7969C80.9438 83.093 81.3346 83.241 81.7253 83.241C82.1102 83.241 82.5009 83.093 82.791 82.7969C83.389 82.2049 83.389 81.2458 82.791 80.6537L76.3674 74.2183C76.0654 73.9222 75.6806 73.7742 75.2899 73.7742ZM34.2851 82.1161C33.6931 82.1279 33.1365 82.4832 32.8997 83.0634L30.6322 88.6877C30.3184 89.4633 30.6914 90.3455 31.467 90.6533C31.6505 90.7303 31.8459 90.7717 32.0353 90.7717C32.6333 90.7717 33.2017 90.4106 33.4385 89.8185L35.7119 84.2001C36.0257 83.4245 35.6468 82.5364 34.8771 82.2227C34.6818 82.1457 34.4805 82.1102 34.2851 82.1161ZM62.7149 82.1161C62.5195 82.1102 62.3182 82.1457 62.1229 82.2227C61.3473 82.5364 60.9743 83.4245 61.2881 84.2001L63.5615 89.8185C63.7983 90.4106 64.3667 90.7717 64.9647 90.7717C65.1541 90.7717 65.3495 90.7303 65.533 90.6533C66.3086 90.3455 66.6816 89.4633 66.3678 88.6877L64.1003 83.0634C63.8635 82.4832 63.3069 82.1279 62.7149 82.1161ZM48.5 84.875C47.6593 84.875 46.9844 85.5558 46.9844 86.3906V95.4844C46.9844 96.3192 47.6593 97 48.5 97C49.3407 97 50.0156 96.3192 50.0156 95.4844V86.3906C50.0156 85.5558 49.3407 84.875 48.5 84.875Z" fill="#C00DDE" fill-opacity="0.3"/>
</svg>
